<svg width="24" height="24" viewBox="0 0 24 24" fill="none" xmlns="http://www.w3.org/2000/svg">
<mask id="mask0_862_418" style="mask-type:alpha" maskUnits="userSpaceOnUse" x="0" y="0" width="24" height="24">
<rect width="24" height="24" fill="#D9D9D9"/>
</mask>
<g mask="url(#mask0_862_418)">
<path d="M3 23C2.45 23 1.97917 22.8042 1.5875 22.4125C1.19583 22.0208 1 21.55 1 21V19C1 18.7167 1.09583 18.4792 1.2875 18.2875C1.47917 18.0958 1.71667 18 2 18C2.28333 18 2.52083 18.0958 2.7125 18.2875C2.90417 18.4792 3 18.7167 3 19V21H5C5.28333 21 5.52083 21.0958 5.7125 21.2875C5.90417 21.4792 6 21.7167 6 22C6 22.2833 5.90417 22.5208 5.7125 22.7125C5.52083 22.9042 5.28333 23 5 23H3ZM21 23H19C18.7167 23 18.4792 22.9042 18.2875 22.7125C18.0958 22.5208 18 22.2833 18 22C18 21.7167 18.0958 21.4792 18.2875 21.2875C18.4792 21.0958 18.7167 21 19 21H21V19C21 18.7167 21.0958 18.4792 21.2875 18.2875C21.4792 18.0958 21.7167 18 22 18C22.2833 18 22.5208 18.0958 22.7125 18.2875C22.9042 18.4792 23 18.7167 23 19V21C23 21.55 22.8042 22.0208 22.4125 22.4125C22.0208 22.8042 21.55 23 21 23ZM12 18.5C10.2333 18.5 8.6 18.0333 7.1 17.1C5.6 16.1667 4.425 14.8917 3.575 13.275C3.475 13.075 3.4 12.8708 3.35 12.6625C3.3 12.4542 3.275 12.2417 3.275 12.025C3.275 11.7917 3.3 11.5667 3.35 11.35C3.4 11.1333 3.475 10.925 3.575 10.725C4.425 9.10833 5.6 7.83333 7.1 6.9C8.6 5.96667 10.2333 5.5 12 5.5C13.7667 5.5 15.4 5.96667 16.9 6.9C18.4 7.83333 19.575 9.10833 20.425 10.725C20.525 10.925 20.6 11.1292 20.65 11.3375C20.7 11.5458 20.725 11.7667 20.725 12C20.725 12.2333 20.7 12.4542 20.65 12.6625C20.6 12.8708 20.525 13.075 20.425 13.275C19.575 14.8917 18.4 16.1667 16.9 17.1C15.4 18.0333 13.7667 18.5 12 18.5ZM12 16.5C13.4667 16.5 14.8083 16.1 16.025 15.3C17.2417 14.5 18.175 13.4 18.825 12C18.175 10.6 17.2417 9.5 16.025 8.7C14.8083 7.9 13.4667 7.5 12 7.5C10.5333 7.5 9.19167 7.9 7.975 8.7C6.75833 9.5 5.825 10.6 5.175 12C5.825 13.4 6.75833 14.5 7.975 15.3C9.19167 16.1 10.5333 16.5 12 16.5ZM12 15.5C12.9667 15.5 13.7917 15.1583 14.475 14.475C15.1583 13.7917 15.5 12.9667 15.5 12C15.5 11.0333 15.1583 10.2083 14.475 9.525C13.7917 8.84167 12.9667 8.5 12 8.5C11.0333 8.5 10.2083 8.84167 9.525 9.525C8.84167 10.2083 8.5 11.0333 8.5 12C8.5 12.9667 8.84167 13.7917 9.525 14.475C10.2083 15.1583 11.0333 15.5 12 15.5ZM12 13.5C11.5833 13.5 11.2292 13.3542 10.9375 13.0625C10.6458 12.7708 10.5 12.4167 10.5 12C10.5 11.5833 10.6458 11.2292 10.9375 10.9375C11.2292 10.6458 11.5833 10.5 12 10.5C12.4167 10.5 12.7708 10.6458 13.0625 10.9375C13.3542 11.2292 13.5 11.5833 13.5 12C13.5 12.4167 13.3542 12.7708 13.0625 13.0625C12.7708 13.3542 12.4167 13.5 12 13.5ZM23 3V5C23 5.28333 22.9042 5.52083 22.7125 5.7125C22.5208 5.90417 22.2833 6 22 6C21.7167 6 21.4792 5.90417 21.2875 5.7125C21.0958 5.52083 21 5.28333 21 5V3H19C18.7167 3 18.4792 2.90417 18.2875 2.7125C18.0958 2.52083 18 2.28333 18 2C18 1.71667 18.0958 1.47917 18.2875 1.2875C18.4792 1.09583 18.7167 1 19 1H21C21.55 1 22.0208 1.19583 22.4125 1.5875C22.8042 1.97917 23 2.45 23 3ZM3 1H5C5.28333 1 5.52083 1.09583 5.7125 1.2875C5.90417 1.47917 6 1.71667 6 2C6 2.28333 5.90417 2.52083 5.7125 2.7125C5.52083 2.90417 5.28333 3 5 3H3V5C3 5.28333 2.90417 5.52083 2.7125 5.7125C2.52083 5.90417 2.28333 6 2 6C1.71667 6 1.47917 5.90417 1.2875 5.7125C1.09583 5.52083 1 5.28333 1 5V3C1 2.45 1.19583 1.97917 1.5875 1.5875C1.97917 1.19583 2.45 1 3 1Z" fill="#858A9B"/>
</g>
</svg>
